<svg xmlns="http://www.w3.org/2000/svg" width="1400" height="760" viewBox="0 0 1400 760">
<defs><linearGradient id="g" x1="0" y1="0" x2="1" y2="1"><stop offset="0" stop-color="#0b1020"/><stop offset="0.45" stop-color="#172554"/><stop offset="1" stop-color="#1e1b4b"/></linearGradient><radialGradient id="r" cx="35%" cy="25%" r="65%"><stop offset="0" stop-color="#60a5fa" stop-opacity=".72"/><stop offset="1" stop-color="#60a5fa" stop-opacity="0"/></radialGradient><filter id="blur"><feGaussianBlur stdDeviation="14"/></filter></defs>
<rect width="1400" height="760" rx="44" fill="url(#g)"/><circle cx="360" cy="210" r="330" fill="url(#r)"/><circle cx="1130" cy="570" r="220" fill="#a78bfa" opacity=".18" filter="url(#blur)"/>
<g fill="none" stroke="#93c5fd" stroke-opacity=".34" stroke-width="2"><path d="M170 540 C300 420, 430 620, 560 490 S850 300, 1050 430 1220 360, 1300 280"/><path d="M190 610 C360 510, 470 660, 640 560 S900 410, 1090 510 1230 460, 1320 390"/></g>
<g font-family="Noto Sans KR, Apple SD Gothic Neo, sans-serif" fill="#fff"><text x="88" y="150" font-size="34" opacity=".8">AIR Executive Blog Briefing</text><text x="88" y="240" font-size="76" font-weight="800">AI Agent의 다음 경쟁축</text><text x="88" y="330" font-size="58" font-weight="700" fill="#bfdbfe">Context · Governance · Quality</text><text x="88" y="420" font-size="30" opacity=".9">Gemini, Codex, Data Agent Kit, Unity Catalog, Security Hub 흐름을</text><text x="88" y="464" font-size="30" opacity=".9">엔터프라이즈 도입 전략과 Presales 질문으로 재구성</text></g>
<g transform="translate(875 145)"><rect width="390" height="430" rx="30" fill="#ffffff" opacity=".1" stroke="#c7d2fe" stroke-opacity=".28"/><g font-family="Noto Sans KR, Apple SD Gothic Neo, sans-serif" fill="#e0f2fe"><text x="36" y="70" font-size="26" font-weight="800">Operating Model</text><text x="36" y="128" font-size="22">① 통제된 데이터 접근</text><text x="36" y="184" font-size="22">② 도구 호출 감사</text><text x="36" y="240" font-size="22">③ 평가 자동화</text><text x="36" y="296" font-size="22">④ 비용/CI 관측</text><text x="36" y="352" font-size="22">⑤ 제안형 워크숍</text></g></g></svg>